<svg xmlns="http://www.w3.org/2000/svg" viewBox="0 0 64 64">
  <rect width="64" height="64" rx="12" fill="#1a0e05"/>
  <g transform="translate(32,36) scale(0.115)">
    <!-- ear tufts -->
    <path d="M -150,-260 C -170,-340 -130,-430 -90,-470 C -110,-380 -90,-300 -55,-230 Z" fill="#3a2d18"/>
    <path d="M 150,-260 C 170,-340 130,-430 90,-470 C 110,-380 90,-300 55,-230 Z" fill="#3a2d18"/>
    <path d="M -130,-250 C -145,-320 -115,-395 -85,-430 C -100,-355 -85,-290 -55,-230 Z" fill="#5a472a"/>
    <path d="M 130,-250 C 145,-320 115,-395 85,-430 C 100,-355 85,-290 55,-230 Z" fill="#5a472a"/>

    <!-- facial disc -->
    <circle cx="0" cy="0" r="190" fill="#cdb27a"/>
    <circle cx="0" cy="0" r="190" fill="none" stroke="#5a472a" stroke-width="14" opacity="0.6"/>

    <!-- eyes -->
    <circle cx="-72" cy="-15" r="62" fill="#1a1208"/>
    <circle cx="72" cy="-15" r="62" fill="#1a1208"/>
    <circle cx="-72" cy="-15" r="50" fill="#c97a2e"/>
    <circle cx="72" cy="-15" r="50" fill="#c97a2e"/>
    <circle cx="-72" cy="-15" r="26" fill="#0c0804"/>
    <circle cx="72" cy="-15" r="26" fill="#0c0804"/>
    <circle cx="-82" cy="-28" r="9" fill="#f0e6cf" opacity="0.7"/>
    <circle cx="62" cy="-28" r="9" fill="#f0e6cf" opacity="0.7"/>

    <!-- brow ridges -->
    <path d="M -130,-65 C -100,-90 -50,-90 -25,-60" stroke="#5a472a" stroke-width="14" fill="none" stroke-linecap="round"/>
    <path d="M 130,-65 C 100,-90 50,-90 25,-60" stroke="#5a472a" stroke-width="14" fill="none" stroke-linecap="round"/>

    <!-- beak -->
    <path d="M -22,55 L 22,55 L 0,100 Z" fill="#3a2d18"/>
  </g>
</svg>
